
<svg width="76px" height="76px" viewBox="0 0 76 76" version="1.1" xmlns="http://www.w3.org/2000/svg" xmlns:xlink="http://www.w3.org/1999/xlink">
    <!-- Generator: Sketch 50.2 (55047) - http://www.bohemiancoding.com/sketch -->
    <desc>Created with Sketch.</desc>
    <defs></defs>
    <g id="Page-4" stroke="none" stroke-width="1" fill="none" fill-rule="evenodd">
        <g id="SAYT-SUMMER" transform="translate(-72.000000, -582.000000)">
            <path d="M109.9763,655.2477 C129.5456,655.2477 145.4094,639.3836 145.4094,619.8143 C145.4094,600.245 129.5456,584.3812 109.9763,584.3812 C90.4071,584.3812 74.5432,600.245 74.5432,619.8143 C74.5432,639.3836 90.4071,655.2477 109.9763,655.2477 Z" id="Fill-185" fill="#FFF100"></path>
            <path d="M109.9763,655.2477 C129.5456,655.2477 145.4094,639.3836 145.4094,619.8143 C145.4094,600.245 129.5456,584.3812 109.9763,584.3812 C90.4071,584.3812 74.5432,600.245 74.5432,619.8143 C74.5432,639.3836 90.4071,655.2477 109.9763,655.2477 Z" id="Stroke-186" stroke="#FFF100" stroke-width="3.9685"></path>
            <path d="M94.2676,595.9781 L125.6848,595.9781 C127.4746,595.9781 128.9387,597.4421 128.9387,599.2322 L128.9387,640.3964 C128.9387,642.1865 127.4746,643.6506 125.6848,643.6506 L94.2676,643.6506 C92.4778,643.6506 91.0137,642.1865 91.0137,640.3964 L91.0137,599.2322 C91.0137,597.4421 92.4778,595.9781 94.2676,595.9781" id="Fill-202" fill="#00ADEE"></path>
            <path d="M95.1809,598.8223 L124.7715,598.8223 C125.4994,598.8223 126.0944,599.4176 126.0944,600.1453 L126.0944,607.3835 C126.0944,608.1112 125.4991,608.7065 124.7715,608.7065 L95.1809,608.7065 C94.4532,608.7065 93.858,608.1115 93.858,607.3835 L93.858,600.1453 C93.858,599.4176 94.4532,598.8223 95.1809,598.8223" id="Fill-203" fill="#FEFEFE"></path>
            <path d="M96.654,611.8492 L100.5435,611.8492 C101.0384,611.8492 101.4432,612.2733 101.4432,612.792 L101.4432,616.5953 C101.4432,617.114 101.0384,617.5381 100.5435,617.5381 L96.654,617.5381 C96.1591,617.5381 95.7543,617.114 95.7543,616.5953 L95.7543,612.792 C95.7543,612.2733 96.1591,611.8492 96.654,611.8492" id="Fill-204" fill="#2E3092"></path>
            <path d="M96.654,619.4342 L100.5435,619.4342 C101.0384,619.4342 101.4432,619.8585 101.4432,620.377 L101.4432,624.1802 C101.4432,624.699 101.0384,625.123 100.5435,625.123 L96.654,625.123 C96.1591,625.123 95.7543,624.699 95.7543,624.1802 L95.7543,620.377 C95.7543,619.8585 96.1591,619.4342 96.654,619.4342" id="Fill-205" fill="#2E3092"></path>
            <path d="M96.654,627.0191 L100.5435,627.0191 C101.0384,627.0191 101.4432,627.4435 101.4432,627.9622 L101.4432,631.7652 C101.4432,632.2839 101.0384,632.7083 100.5435,632.7083 L96.654,632.7083 C96.1591,632.7083 95.7543,632.2839 95.7543,631.7652 L95.7543,627.9622 C95.7543,627.4435 96.1591,627.0191 96.654,627.0191" id="Fill-206" fill="#2E3092"></path>
            <path d="M96.654,634.6041 L100.5435,634.6041 C101.0384,634.6041 101.4432,635.0284 101.4432,635.5472 L101.4432,639.3501 C101.4432,639.8689 101.0384,640.2932 100.5435,640.2932 L96.654,640.2932 C96.1591,640.2932 95.7543,639.8689 95.7543,639.3501 L95.7543,635.5472 C95.7543,635.0284 96.1591,634.6041 96.654,634.6041" id="Fill-207" fill="#2E3092"></path>
            <path d="M104.239,611.8492 L108.1284,611.8492 C108.6233,611.8492 109.0281,612.2733 109.0281,612.792 L109.0281,616.5953 C109.0281,617.114 108.6233,617.5381 108.1284,617.5381 L104.239,617.5381 C103.7441,617.5381 103.3393,617.114 103.3393,616.5953 L103.3393,612.792 C103.3393,612.2733 103.7441,611.8492 104.239,611.8492" id="Fill-208" fill="#2E3092"></path>
            <path d="M104.239,619.4342 L108.1284,619.4342 C108.6233,619.4342 109.0281,619.8585 109.0281,620.377 L109.0281,624.1802 C109.0281,624.699 108.6233,625.123 108.1284,625.123 L104.239,625.123 C103.7441,625.123 103.3393,624.699 103.3393,624.1802 L103.3393,620.377 C103.3393,619.8585 103.7441,619.4342 104.239,619.4342" id="Fill-209" fill="#2E3092"></path>
            <path d="M104.239,627.0191 L108.1284,627.0191 C108.6233,627.0191 109.0281,627.4435 109.0281,627.9622 L109.0281,631.7652 C109.0281,632.2839 108.6233,632.7083 108.1284,632.7083 L104.239,632.7083 C103.7441,632.7083 103.3393,632.2839 103.3393,631.7652 L103.3393,627.9622 C103.3393,627.4435 103.7441,627.0191 104.239,627.0191" id="Fill-210" fill="#2E3092"></path>
            <path d="M104.239,634.6041 L108.1284,634.6041 C108.6233,634.6041 109.0281,635.0284 109.0281,635.5472 L109.0281,639.3501 C109.0281,639.8689 108.6233,640.2932 108.1284,640.2932 L104.239,640.2932 C103.7441,640.2932 103.3393,639.8689 103.3393,639.3501 L103.3393,635.5472 C103.3393,635.0284 103.7441,634.6041 104.239,634.6041" id="Fill-211" fill="#2E3092"></path>
            <path d="M111.8239,611.8492 L115.7136,611.8492 C116.2083,611.8492 116.6131,612.2733 116.6131,612.792 L116.6131,616.5953 C116.6131,617.114 116.2083,617.5381 115.7136,617.5381 L111.8239,617.5381 C111.329,617.5381 110.9245,617.114 110.9245,616.5953 L110.9245,612.792 C110.9245,612.2733 111.329,611.8492 111.8239,611.8492" id="Fill-212" fill="#2E3092"></path>
            <path d="M111.8239,619.4342 L115.7136,619.4342 C116.2083,619.4342 116.6131,619.8585 116.6131,620.377 L116.6131,624.1802 C116.6131,624.699 116.2083,625.123 115.7136,625.123 L111.8239,625.123 C111.329,625.123 110.9245,624.699 110.9245,624.1802 L110.9245,620.377 C110.9245,619.8585 111.329,619.4342 111.8239,619.4342" id="Fill-213" fill="#2E3092"></path>
            <path d="M111.8239,627.0191 L115.7136,627.0191 C116.2083,627.0191 116.6131,627.4435 116.6131,627.9622 L116.6131,631.7652 C116.6131,632.2839 116.2083,632.7083 115.7136,632.7083 L111.8239,632.7083 C111.329,632.7083 110.9245,632.2839 110.9245,631.7652 L110.9245,627.9622 C110.9245,627.4435 111.329,627.0191 111.8239,627.0191" id="Fill-214" fill="#2E3092"></path>
            <path d="M111.8239,634.6041 L115.7136,634.6041 C116.2083,634.6041 116.6131,635.0284 116.6131,635.5472 L116.6131,639.3501 C116.6131,639.8689 116.2083,640.2932 115.7136,640.2932 L111.8239,640.2932 C111.329,640.2932 110.9245,639.8689 110.9245,639.3501 L110.9245,635.5472 C110.9245,635.0284 111.329,634.6041 111.8239,634.6041" id="Fill-215" fill="#2E3092"></path>
            <path d="M119.4089,611.8492 L123.2986,611.8492 C123.7935,611.8492 124.198,612.2733 124.198,612.792 L124.198,616.5953 C124.198,617.114 123.7935,617.5381 123.2986,617.5381 L119.4089,617.5381 C118.9142,617.5381 118.5094,617.114 118.5094,616.5953 L118.5094,612.792 C118.5094,612.2733 118.9142,611.8492 119.4089,611.8492" id="Fill-216" fill="#2E3092"></path>
            <path d="M119.4089,619.4342 L123.2986,619.4342 C123.7935,619.4342 124.198,619.8585 124.198,620.377 L124.198,624.1802 C124.198,624.699 123.7935,625.123 123.2986,625.123 L119.4089,625.123 C118.9142,625.123 118.5094,624.699 118.5094,624.1802 L118.5094,620.377 C118.5094,619.8585 118.9142,619.4342 119.4089,619.4342" id="Fill-217" fill="#2E3092"></path>
            <path d="M119.4089,627.0191 L123.2986,627.0191 C123.7935,627.0191 124.198,627.4435 124.198,627.9622 L124.198,631.7652 C124.198,632.2839 123.7935,632.7083 123.2986,632.7083 L119.4089,632.7083 C118.9142,632.7083 118.5094,632.2839 118.5094,631.7652 L118.5094,627.9622 C118.5094,627.4435 118.9142,627.0191 119.4089,627.0191" id="Fill-218" fill="#2E3092"></path>
            <path d="M119.4089,634.6041 L123.2986,634.6041 C123.7935,634.6041 124.198,635.0284 124.198,635.5472 L124.198,639.3501 C124.198,639.8689 123.7935,640.2932 123.2986,640.2932 L119.4089,640.2932 C118.9142,640.2932 118.5094,639.8689 118.5094,639.3501 L118.5094,635.5472 C118.5094,635.0284 118.9142,634.6041 119.4089,634.6041" id="Fill-219" fill="#2E3092"></path>
            <text id="0" font-family="Arial-BoldMT, Arial" font-size="8.746" font-weight="bold" fill="#2E3092">
                <tspan x="120.1615" y="605.176678">0</tspan>
            </text>
        </g>
    </g>
</svg>