
<svg width="357px" height="379px" viewBox="0 0 357 379" version="1.1" xmlns="http://www.w3.org/2000/svg" xmlns:xlink="http://www.w3.org/1999/xlink">
    <!-- Generator: Sketch 50.2 (55047) - http://www.bohemiancoding.com/sketch -->
    <desc>Created with Sketch.</desc>
    <defs>
        <path d="M176.8819,354.0811 C274.5125,354.0811 353.6581,274.9355 353.6581,177.3049 C353.6581,79.6743 274.5125,0.5288 176.8819,0.5288 C79.2513,0.5288 0.1058,79.6743 0.1058,177.3049 C0.1058,274.9355 79.2513,354.0811 176.8819,354.0811" id="path-1"></path>
        <linearGradient x1="0%" y1="-0.000169706151%" x2="0%" y2="99.9999943%" id="linearGradient-3">
            <stop stop-color="#414042" offset="0%"></stop>
            <stop stop-color="#FEFEFE" offset="100%"></stop>
        </linearGradient>
        <path d="M169.8819,338.1988 C263.1593,338.1988 338.7758,262.5823 338.7758,169.3049 C338.7758,76.0275 263.1593,0.4111 169.8819,0.4111 C76.6045,0.4111 0.9881,76.0275 0.9881,169.3049 C0.9881,262.5823 76.6045,338.1988 169.8819,338.1988" id="path-4"></path>
        <linearGradient x1="-8.88131806e-05%" y1="-0.000177626361%" x2="-8.88131806e-05%" y2="99.9999941%" id="linearGradient-6">
            <stop stop-color="#414042" offset="0%"></stop>
            <stop stop-color="#FEFEFE" offset="100%"></stop>
        </linearGradient>
        <path d="M169.8819,338.1988 C263.1593,338.1988 338.7758,262.5823 338.7758,169.3049 C338.7758,76.0275 263.1593,0.4111 169.8819,0.4111 C76.6045,0.4111 0.9881,76.0275 0.9881,169.3049 C0.9881,262.5823 76.6045,338.1988 169.8819,338.1988" id="path-7"></path>
        <linearGradient x1="100.000237%" y1="100%" x2="100.000237%" y2="-0.000171705482%" id="linearGradient-9">
            <stop stop-color="#414042" offset="0%"></stop>
            <stop stop-color="#FEFEFE" offset="100%"></stop>
        </linearGradient>
        <path d="M161.8819,322.3689 C250.8351,322.3689 322.9459,250.2581 322.9459,161.3049 C322.9459,72.3517 250.8351,0.2409 161.8819,0.2409 C72.9288,0.2409 0.8179,72.3517 0.8179,161.3049 C0.8179,250.2581 72.9288,322.3689 161.8819,322.3689" id="path-10"></path>
        <radialGradient cx="50%" cy="50%" fx="50%" fy="50%" r="71.0000617%" id="radialGradient-12">
            <stop stop-color="#CCCCCC" offset="0%"></stop>
            <stop stop-color="#FDFDFD" offset="100%"></stop>
        </radialGradient>
        <path d="M161.8819,322.3689 C250.8351,322.3689 322.9459,250.2581 322.9459,161.3049 C322.9459,72.3517 250.8351,0.2409 161.8819,0.2409 C72.9288,0.2409 0.8179,72.3517 0.8179,161.3049 C0.8179,250.2581 72.9288,322.3689 161.8819,322.3689" id="path-13"></path>
        <polygon id="path-15" points="0.9773 0.786 61.6537 0.786 61.3187 3.8347 59.8234 3.871 54.3931 53.3072 9.0339 53.3072 2.8538 3.8687 1.3574 3.8279"></polygon>
        <path d="M55.1375396,0.786 C49.3367236,20.0636692 40.02096,37.8189969 27.935032,53.3072 L8.0621,53.3072 L1.882,3.8687 L0.3856,3.8279 L0.0055,0.786 L55.1375396,0.786 Z" id="path-17"></path>
        <path d="M55.3508054,36.5928205 C49.4195036,42.6910868 43.009266,48.321122 36.1808186,53.4222 L8.143,53.4222 L1.9629,3.9834 L0.4665,3.9429 L0.0867,0.9007 L60.7631,0.9007 L60.4281,3.9494 L58.9325,3.9857 L55.3508054,36.5928205 Z" id="path-19"></path>
        <path d="M94.3629,30.9918 C99.4506,33.0052 101.9657,38.8148 99.9523,43.9025 L95.5866,54.9335 C93.5732,60.0211 87.7633,62.5363 82.6757,60.5228 L6.5422,30.3923 C1.4549,28.3788 -1.0603,22.5692 0.9531,17.4816 L5.3188,6.4506 C7.3322,1.3629 13.1418,-1.1523 18.2294,0.8612 L94.3629,30.9918 Z" id="path-21"></path>
    </defs>
    <g id="Page-1" stroke="none" stroke-width="1" fill="none" fill-rule="evenodd">
        <g id="SAYT-SUMMER" transform="translate(-119.000000, -427.000000)">
            <g id="Group-3" transform="translate(122.000000, 451.889800)">
                <mask id="mask-2" fill="white">
                    <use xlink:href="#path-1"></use>
                </mask>
                <g id="Clip-2"></g>
                <path d="M176.8819,354.0811 C274.5125,354.0811 353.6581,274.9355 353.6581,177.3049 C353.6581,79.6743 274.5125,0.5288 176.8819,0.5288 C79.2513,0.5288 0.1058,79.6743 0.1058,177.3049 C0.1058,274.9355 79.2513,354.0811 176.8819,354.0811" id="Fill-1" fill="url(#linearGradient-3)" mask="url(#mask-2)"></path>
            </g>
            <g id="Group-6" transform="translate(129.000000, 459.889800)">
                <mask id="mask-5" fill="white">
                    <use xlink:href="#path-4"></use>
                </mask>
                <g id="Clip-5"></g>
                <path d="M169.8819,338.1988 C263.1593,338.1988 338.7758,262.5823 338.7758,169.3049 C338.7758,76.0275 263.1593,0.4111 169.8819,0.4111 C76.6045,0.4111 0.9881,76.0275 0.9881,169.3049 C0.9881,262.5823 76.6045,338.1988 169.8819,338.1988" id="Fill-4" fill="url(#linearGradient-6)" mask="url(#mask-5)"></path>
            </g>
            <g id="Group-9" transform="translate(129.000000, 459.889800)">
                <mask id="mask-8" fill="white">
                    <use xlink:href="#path-7"></use>
                </mask>
                <g id="Clip-8"></g>
                <path d="M169.8819,338.1988 C263.1593,338.1988 338.7758,262.5823 338.7758,169.3049 C338.7758,76.0275 263.1593,0.4111 169.8819,0.4111 C76.6045,0.4111 0.9881,76.0275 0.9881,169.3049 C0.9881,262.5823 76.6045,338.1988 169.8819,338.1988" id="Fill-7" fill="url(#linearGradient-9)" mask="url(#mask-8)"></path>
            </g>
            <g id="Group-12" transform="translate(137.000000, 467.889800)">
                <mask id="mask-11" fill="white">
                    <use xlink:href="#path-10"></use>
                </mask>
                <g id="Clip-11"></g>
                <path d="M161.8819,322.3689 C250.8351,322.3689 322.9459,250.2581 322.9459,161.3049 C322.9459,72.3517 250.8351,0.2409 161.8819,0.2409 C72.9288,0.2409 0.8179,72.3517 0.8179,161.3049 C0.8179,250.2581 72.9288,322.3689 161.8819,322.3689" id="Fill-10" fill="url(#radialGradient-12)" mask="url(#mask-11)"></path>
            </g>
            <g id="Group-78" transform="translate(137.000000, 467.889800)">
                <mask id="mask-14" fill="white">
                    <use xlink:href="#path-13"></use>
                </mask>
                <g id="Clip-14"></g>
                <path d="M242.6257,293.7299 C280.1448,293.7299 310.5597,282.0628 310.5597,267.671 C310.5597,253.2795 280.1448,241.6124 242.6257,241.6124 C205.1066,241.6124 174.6917,253.2795 174.6917,267.671 C174.6917,282.0628 205.1066,293.7299 242.6257,293.7299" id="Fill-13" fill="#FF0000" mask="url(#mask-14)"></path>
                <g id="Group-21" mask="url(#mask-14)">
                    <g transform="translate(190.000000, 207.000000)">
                        <mask id="mask-16" fill="white">
                            <use xlink:href="#path-15"></use>
                        </mask>
                        <g id="Clip-16" stroke="none" fill="none"></g>
                        <polygon id="Fill-15" stroke="none" fill="#333333" fill-rule="evenodd" mask="url(#mask-16)" points="-0.8139 -2.2975 69.9108 -2.2975 69.9108 3.8698 -0.8139 3.8698"></polygon>
                        <polygon id="Fill-17" stroke="none" fill="#FFFFFF" fill-rule="evenodd" mask="url(#mask-16)" points="1.0589 3.8701 68.0379 3.8701 68.0379 20.5469 1.0589 20.5469"></polygon>
                        <polygon id="Fill-18" stroke="none" fill="#FFFF00" fill-rule="evenodd" mask="url(#mask-16)" points="1.0589 20.5472 68.0379 20.5472 68.0379 37.224 1.0589 37.224"></polygon>
                        <polygon id="Fill-19" stroke="none" fill="#FFFFFF" fill-rule="evenodd" mask="url(#mask-16)" points="1.0589 37.2243 68.0379 37.2243 68.0379 53.901 1.0589 53.901"></polygon>
                        <polygon id="Fill-20" stroke="none" fill="#808080" fill-rule="evenodd" mask="url(#mask-16)" points="-0.9134 58.2809 75.2821 58.2809 75.2821 51.3178 -0.9134 51.3178"></polygon>
                    </g>
                </g>
                <polygon id="Fill-22" fill="#666666" mask="url(#mask-14)" points="193.357 214.8962 191.7001 214.8962 192.347 220.0691 194.0038 220.0691"></polygon>
                <polygon id="Fill-23" fill="#666666" mask="url(#mask-14)" points="249.3767 214.8962 251.0338 214.8962 250.3866 220.0691 248.8129 220.0691"></polygon>
                <polygon id="Fill-24" fill="#FFFF00" mask="url(#mask-14)" points="225.6368 207.786 246.6934 207.786 246.3697 210.9277 245.7259 211.6703 245.0825 211.1258 244.4387 212.0663 244.6862 214.8392 244.5376 216.2749 243.696 216.2253 243.4979 215.1856 242.8048 213.7498 241.8144 213.948 241.0717 215.0866 241.468 216.7701 241.1709 218.0574 240.6261 218.6022 239.8834 218.3544 238.8933 217.6117 238.8933 216.8691 238.7448 216.2749 238.3981 215.5819 237.2098 215.7304 236.2693 216.3739 236.6653 217.3147 236.4178 218.9982 235.774 219.8398 235.477 221.3251 234.7343 221.9689 233.8927 222.167 232.7041 221.87 231.5654 221.0777 231.1694 219.9883 231.2188 216.7205 230.8228 213.0071 230.0305 212.2149 229.2878 213.4528 228.7929 215.2352 227.6046 215.5819 226.6638 215.0866 226.4656 213.7994 226.4656 213.1557 226.3171 211.7693 226.02 210.581"></polygon>
                <g id="Group-31" mask="url(#mask-14)">
                    <g transform="translate(261.000000, 207.000000)">
                        <mask id="mask-18" fill="white">
                            <use xlink:href="#path-17"></use>
                        </mask>
                        <g id="Clip-26" stroke="none" fill="none"></g>
                        <polygon id="Fill-25" stroke="none" fill="#333333" fill-rule="evenodd" mask="url(#mask-18)" points="-1.7854 -2.2975 68.939 -2.2975 68.939 3.8698 -1.7854 3.8698"></polygon>
                        <polygon id="Fill-27" stroke="none" fill="#FFFFFF" fill-rule="evenodd" mask="url(#mask-18)" points="0.0871 3.8701 67.0661 3.8701 67.0661 20.5469 0.0871 20.5469"></polygon>
                        <polygon id="Fill-28" stroke="none" fill="#FF0000" fill-rule="evenodd" mask="url(#mask-18)" points="0.0871 20.5472 67.0661 20.5472 67.0661 37.224 0.0871 37.224"></polygon>
                        <polygon id="Fill-29" stroke="none" fill="#FFFFFF" fill-rule="evenodd" mask="url(#mask-18)" points="0.0871 37.2243 67.0661 37.2243 67.0661 53.901 0.0871 53.901"></polygon>
                        <polygon id="Fill-30" stroke="none" fill="#808080" fill-rule="evenodd" mask="url(#mask-18)" points="-1.8852 58.2809 74.3104 58.2809 74.3104 51.3178 -1.8852 51.3178"></polygon>
                    </g>
                </g>
                <polygon id="Fill-32" fill="#666666" mask="url(#mask-14)" points="263.3852 214.8962 261.7283 214.8962 262.3752 220.0691 264.0321 220.0691"></polygon>
                <polygon id="Fill-33" fill="#666666" mask="url(#mask-14)" points="319.4052 214.8962 321.062 214.8962 320.4151 220.0691 318.8411 220.0691"></polygon>
                <polygon id="Fill-34" fill="#FF0000" mask="url(#mask-14)" points="295.665 207.786 316.7216 207.786 316.3979 210.9277 315.7544 211.6703 315.1107 211.1258 314.4669 212.0663 314.7147 214.8392 314.5661 216.2749 313.7243 216.2253 313.5264 215.1856 312.833 213.7498 311.8429 213.948 311.1002 215.0866 311.4962 216.7701 311.1991 218.0574 310.6546 218.6022 309.9119 218.3544 308.9215 217.6117 308.9215 216.8691 308.773 216.2749 308.4266 215.5819 307.2383 215.7304 306.2975 216.3739 306.6935 217.3147 306.446 218.9982 305.8023 219.8398 305.5052 221.3251 304.7625 221.9689 303.9209 222.167 302.7326 221.87 301.5937 221.0777 301.1977 219.9883 301.2473 216.7205 300.851 213.0071 300.059 212.2149 299.3163 213.4528 298.8211 215.2352 297.6328 215.5819 296.692 215.0866 296.4941 213.7994 296.4941 213.1557 296.3456 211.7693 296.0485 210.581"></polygon>
                <g id="Group-41" mask="url(#mask-14)">
                    <g transform="translate(222.000000, 237.000000)">
                        <mask id="mask-20" fill="white">
                            <use xlink:href="#path-19"></use>
                        </mask>
                        <g id="Clip-36" stroke="none" fill="none"></g>
                        <polygon id="Fill-35" stroke="none" fill="#333333" fill-rule="evenodd" mask="url(#mask-20)" points="-1.7045 -2.1828 69.0199 -2.1828 69.0199 3.9845 -1.7045 3.9845"></polygon>
                        <polygon id="Fill-37" stroke="none" fill="#FFFFFF" fill-rule="evenodd" mask="url(#mask-20)" points="0.1683 3.9848 67.1473 3.9848 67.1473 20.6616 0.1683 20.6616"></polygon>
                        <polygon id="Fill-38" stroke="none" fill="#00FF00" fill-rule="evenodd" mask="url(#mask-20)" points="0.1683 20.6619 67.1473 20.6619 67.1473 37.3387 0.1683 37.3387"></polygon>
                        <polygon id="Fill-39" stroke="none" fill="#FFFFFF" fill-rule="evenodd" mask="url(#mask-20)" points="0.1683 37.339 67.1473 37.339 67.1473 54.016 0.1683 54.016"></polygon>
                        <polygon id="Fill-40" stroke="none" fill="#808080" fill-rule="evenodd" mask="url(#mask-20)" points="-1.804 58.3956 74.3915 58.3956 74.3915 51.4325 -1.804 51.4325"></polygon>
                    </g>
                </g>
                <polygon id="Fill-42" fill="#666666" mask="url(#mask-14)" points="224.4661 245.0109 222.8092 245.0109 223.4561 250.1841 225.1129 250.1841"></polygon>
                <polygon id="Fill-43" fill="#666666" mask="url(#mask-14)" points="280.486 245.0109 282.1429 245.0109 281.496 250.1841 279.922 250.1841"></polygon>
                <polygon id="Fill-44" fill="#00FF00" mask="url(#mask-14)" points="256.7462 237.9007 277.8025 237.9007 277.4788 241.0424 276.8353 241.785 276.1916 241.2405 275.5478 242.1813 275.7956 244.9539 275.647 246.3899 274.8051 246.3403 274.6073 245.3006 273.9139 243.8645 272.9238 244.0627 272.1811 245.2014 272.5771 246.8849 272.28 248.1723 271.7355 248.7169 270.9928 248.4694 270.0027 247.7267 270.0027 246.9841 269.8541 246.3899 269.5075 245.6966 268.3192 245.8451 267.3784 246.4889 267.7744 247.4297 267.5269 249.1129 266.8831 249.9548 266.5861 251.4401 265.8434 252.0836 265.0018 252.2817 263.8135 251.9847 262.6748 251.1924 262.2786 250.1033 262.3282 246.8355 261.9322 243.1219 261.1399 242.3299 260.3972 243.5675 259.902 245.3499 258.7137 245.6966 257.7729 245.2014 257.575 243.9141 257.575 243.2704 257.4265 241.8843 257.1294 240.696"></polygon>
                <polygon id="Fill-45" fill="#F5D6B3" mask="url(#mask-14)" points="56.1031 128.7269 82.225 128.7269 84.8286 163.98 56.1031 163.493"></polygon>
                <path d="M2.9255,197.7117 C15.7902,174.5929 31.575,155.9222 56.1031,150.5619 C66.8113,163.6659 81.4534,158.6182 83.9136,152.0679 C84.5179,152.1983 85.1109,152.344 85.7042,152.4903 C96.3347,155.1106 105.1697,160.2207 112.7428,167.0743 C119.9575,180.8005 119.2596,234.4436 144.7598,231.3859 C156.1698,229.4781 162.4077,215.0702 161.0862,182.393 C165.728,182.8573 170.37,183.3216 175.0123,183.7856 C178.1735,214.4911 163.3902,246.3916 145.1255,246.2074 C130.4519,245.514 119.6638,234.7177 109.7587,216.0147 C109.8248,210.5764 109.8911,205.1387 109.9574,199.701 C106.6386,197.3834 104.9359,193.4495 105.1828,187.5656 C87.742,188.8256 70.301,190.0856 52.8606,191.3456 C50.3052,205.7235 44.0125,212.1874 36.9452,217.0094 C36.9752,204.8068 36.3207,192.6059 32.3692,180.4036 C22.4684,191.5517 15.3534,204.6058 10.4855,219.1977 C7.9655,212.0357 5.4455,204.8737 2.9255,197.7117" id="Fill-46" fill="#FFD60F" mask="url(#mask-14)"></path>
                <path d="M39.2194,156.9594 L39.5369,154.2248 C42.5068,151.8857 44.0967,151.3987 47.1122,153.0388 C58.395,164.9117 61.7163,177.5905 60.6221,190.7847 C73.4257,189.8597 86.2295,188.9348 99.0333,188.0101 C99.2224,176.4944 96.4705,164.675 88.9788,152.3659 C90.7006,152.399 92.422,152.4322 94.1438,152.4651 C101.0232,163.2231 103.6569,175.0824 103.3859,187.6952 C103.9849,187.6521 104.5835,187.6087 105.1828,187.5656 C105.8764,192.1235 107.4097,196.2017 109.9574,199.701 C108.5543,229.566 108.0665,259.323 102.9488,288.1272 C105.3514,296.5836 111.1361,308.0245 113.5385,316.4814 C91.3902,308.8757 63.3346,293.0317 39.3323,267.9389 C38.5366,250.9622 37.7409,233.9858 36.9452,217.0094 C44.3317,212.0289 50.5974,205.1234 52.8606,191.3456 C53.5633,191.2946 54.2663,191.2439 54.9693,191.1931 C54.4452,179.3653 54.6433,167.7299 41.1909,155.9026 L39.2194,156.9594 Z" id="Fill-47" fill="#FF0000" mask="url(#mask-14)"></path>
                <path d="M56.9215,193.5167 L59.3071,193.3316 C60.7012,193.2233 61.9298,194.275 62.038,195.669 L62.2501,198.4002 C62.3581,199.7943 61.3067,201.0228 59.9126,201.1311 L57.527,201.3162 C56.1329,201.4245 54.9044,200.3729 54.7961,198.9788 L54.5841,196.2479 C54.4758,194.8538 55.5274,193.625 56.9215,193.5167" id="Fill-48" fill="#663333" mask="url(#mask-14)"></path>
                <path d="M99.1589,190.3022 L101.2038,190.1406 C102.3779,190.0477 103.4142,190.9323 103.5069,192.1062 L103.6917,194.4439 C103.7847,195.6177 102.9,196.6541 101.7262,196.7471 L99.6813,196.9086 C98.5072,197.0016 97.4708,196.1169 97.3781,194.9431 L97.1933,192.6056 C97.1003,191.4315 97.985,190.3952 99.1589,190.3022" id="Fill-49" fill="#663333" mask="url(#mask-14)"></path>
                <polygon id="Fill-50" fill="#993B3B" mask="url(#mask-14)" points="56.4694 213.8714 100.8339 213.0757 95.6612 246.8962 63.4324 249.0845"></polygon>
                <path d="M55.6023,150.6897 C64.6417,160.9846 78.5697,161.4118 84.4068,152.1524 C84.8606,152.2573 85.283,152.3738 85.7207,152.4858 C85.8641,152.522 86.0084,152.5609 86.1566,152.5949 C80.6622,162.7214 65.8764,165.3477 53.7481,151.1243 C54.2581,151.0061 55.0929,150.8074 55.6023,150.6897" id="Fill-51" fill="#808080" mask="url(#mask-14)"></path>
                <polygon id="Fill-52" fill="#663333" mask="url(#mask-14)" points="39.5369 154.2248 41.1909 155.9026 37.7423 157.8123"></polygon>
                <polygon id="Fill-53" fill="#663333" mask="url(#mask-14)" points="88.9788 152.3659 87.9059 153.0669 89.7626 153.6451"></polygon>
                <path d="M88.7719,152.5014 C96.1785,164.1291 99.5041,175.8894 99.0333,188.0101" id="Stroke-54" stroke="#663333" stroke-width="0.5102" mask="url(#mask-14)"></path>
                <path d="M39.4561,154.5012 C40.1478,154.8294 40.8014,155.2396 41.4103,155.7686 C50.1813,163.383 55.7962,174.1113 54.9693,191.1931" id="Stroke-55" stroke="#663333" stroke-width="0.5102" mask="url(#mask-14)"></path>
                <polygon id="Fill-56" fill="#BA0000" mask="url(#mask-14)" points="102.9488 288.1272 93.9451 291.2193 110.589 308.0817"></polygon>
                <path d="M57.3201,193.0169 L59.7054,192.8318 C61.0995,192.7236 62.3283,193.7752 62.4363,195.1693 L62.6483,197.9002 C62.7566,199.2943 61.705,200.5231 60.3109,200.6311 L57.9255,200.8165 C56.5315,200.9248 55.3026,199.8731 55.1946,198.479 L54.9826,195.7478 C54.8743,194.3538 55.926,193.1252 57.3201,193.0169" id="Fill-57" fill="#FFFF00" mask="url(#mask-14)"></path>
                <path d="M99.5991,189.9686 L101.644,189.8067 C102.8181,189.714 103.8545,190.5984 103.9471,191.7725 L104.132,194.11 C104.2249,195.2841 103.3403,196.3204 102.1664,196.4131 L100.1215,196.575 C98.9474,196.6677 97.9111,195.7833 97.8184,194.6092 L97.6335,192.2717 C97.5406,191.0976 98.4253,190.0613 99.5991,189.9686" id="Fill-58" fill="#FFFF00" mask="url(#mask-14)"></path>
                <polygon id="Fill-59" fill="#BA0000" mask="url(#mask-14)" points="57.8343 212.0357 102.1987 211.24 97.0261 245.0605 64.7973 247.2488"></polygon>
                <path d="M56.1031,150.5619 C65.1423,160.857 78.0765,161.3273 83.9136,152.0679 C84.5179,152.1558 85.1203,152.3018 85.7207,152.4858 C80.1948,161.9025 66.3436,164.4644 54.249,150.9964 C54.4959,150.8967 54.8366,150.8162 55.1745,150.7368 C55.5084,150.6583 55.8497,150.6203 56.1031,150.5619" id="Fill-60" fill="#663333" mask="url(#mask-14)"></path>
                <polyline id="Stroke-61" stroke="#999999" stroke-width="2.8346" stroke-linejoin="round" mask="url(#mask-14)" points="157.7635 48.5444 148.4936 45.0136 139.1702 68.9332 188.9397 112.2193 177.8886 144.0096"></polyline>
                <path d="M251.2498,66.2391 L175.1163,36.1085 C170.0287,34.0951 164.2191,36.6103 162.2056,41.6979 L157.84,52.7289 C155.8266,57.8165 158.3417,63.6261 163.4294,65.6396 L239.5628,95.7699 C244.6502,97.7833 250.4601,95.2684 252.4735,90.1808 L256.8391,79.1498 C258.8526,74.0622 256.3374,68.2526 251.2498,66.2391 Z" id="Fill-62" fill="#333333" mask="url(#mask-14)"></path>
                <path d="M251.2498,66.2391 L175.1163,36.1085 C170.0287,34.0951 164.2191,36.6103 162.2056,41.6979 L157.84,52.7289 C155.8266,57.8165 158.3417,63.6261 163.4294,65.6396 L239.5628,95.7699 C244.6502,97.7833 250.4601,95.2684 252.4735,90.1808 L256.8391,79.1498 C258.8526,74.0622 256.3374,68.2526 251.2498,66.2391 Z" id="Stroke-63" stroke="#333333" stroke-width="1.4173" mask="url(#mask-14)"></path>
                <g id="Group-69" mask="url(#mask-14)">
                    <g transform="translate(153.000000, 37.000000)">
                        <mask id="mask-22" fill="white">
                            <use xlink:href="#path-21"></use>
                        </mask>
                        <g id="Clip-65" stroke="none" fill="none"></g>
                        <polygon id="Fill-64" stroke="none" fill="#FFD60F" fill-rule="evenodd" mask="url(#mask-22)" points="-5.4622 -17.003 111.4031 -0.0912 99.9166 79.2845 -16.9488 62.373"></polygon>
                        <polygon id="Fill-66" stroke="none" fill="#666666" fill-rule="evenodd" mask="url(#mask-22)" points="11.244 -8.6349 117.3508 33.9721 105.5881 63.2656 -0.5186 20.6584"></polygon>
                        <polygon id="Fill-67" stroke="none" fill="#FFFFFF" fill-rule="evenodd" mask="url(#mask-22)" points="12.8643 -17.8134 118.9711 24.7938 107.2084 54.0871 1.1017 11.4798"></polygon>
                        <polygon id="Fill-68" stroke="none" fill="#FFD60F" fill-rule="evenodd" mask="url(#mask-22)" points="17.224 -25.4803 123.3307 17.1267 111.5681 46.4199 5.4614 3.8129"></polygon>
                    </g>
                </g>
                <path d="M247.3629,67.9918 L171.2294,37.8612 C166.1418,35.8477 160.3322,38.3629 158.3188,43.4506 L153.9531,54.4816 C151.9397,59.5692 154.4549,65.3788 159.5422,67.3923 L235.6757,97.5228 C240.7633,99.5363 246.5732,97.0211 248.5866,91.9335 L252.9523,80.9025 C254.9657,75.8148 252.4506,70.0052 247.3629,67.9918 Z" id="Stroke-70" stroke="#FFD60F" stroke-width="1.4173" mask="url(#mask-14)"></path>
                <polyline id="Stroke-71" stroke="#333333" stroke-width="2.8346" stroke-linejoin="round" mask="url(#mask-14)" points="155.8416 48.2663 146.5717 44.7355 137.2486 68.6551 187.0181 111.9413 175.9667 143.7315"></polyline>
                <path d="M181.1578,143.5274 L171.9971,140.0947 C170.5715,139.5606 168.9915,140.1369 168.2188,141.3856 L166.755,145.1197 L171.4775,155.5027 L181.7857,150.8136 L183.1477,147.0319 C183.413,145.5667 182.5986,144.0671 181.1578,143.5274 Z M166.755,145.1202 L151.4516,185.9618 C150.8447,187.5809 151.6735,189.4019 153.2941,190.0091 L162.4548,193.4419 C164.0742,194.0488 165.8958,193.2205 166.5024,191.6013 L181.7857,150.8139 L174.0978,154.3107 L171.4775,155.5027 L171.4772,155.5024 L170.2852,152.882 L166.755,145.1202 Z" id="Fill-72" fill="#000000" mask="url(#mask-14)"></path>
                <path d="M154.0512,162.5814 C161.4683,162.5814 168.8858,162.5814 176.3037,162.5814 C178.7024,163.3683 178.2653,163.1987 179.0366,165.939 C179.0366,177.1058 179.2166,183.59 175.3986,193.8061 C173.9873,183.1702 168.1269,184.922 153.8774,184.2426 C152.6886,182.9962 152.349,181.3881 152.349,180.0456 C151.724,178.7405 151.7982,177.1931 152.349,175.483 C151.4311,173.8054 152.0899,172.3161 152.349,171.138 C151.8331,169.5988 151.595,168.082 152.349,166.6457 C152.2643,163.9026 152.4862,163.7549 154.0512,162.5814" id="Fill-73" fill="#F5D6B3" mask="url(#mask-14)"></path>
                <polygon id="Fill-74" fill="#9C754F" mask="url(#mask-14)" points="152.1259 167.1471 170.3263 167.2225 170.3263 166.5436 152.3357 166.5436"></polygon>
                <polygon id="Fill-75" fill="#9C754F" mask="url(#mask-14)" points="152.1934 171.7441 170.3263 171.767 170.3263 171.0881 152.3357 171.0881"></polygon>
                <path d="M152.1336,176.2401 L170.3263,176.3118 L170.3263,175.6329 L152.3357,175.483 C152.2577,175.7324 152.1945,175.9858 152.1336,176.2401" id="Fill-76" fill="#9C754F" mask="url(#mask-14)"></path>
                <polygon id="Fill-77" fill="#9C754F" mask="url(#mask-14)" points="152.3643 180.7341 170.3263 180.8563 170.3263 180.1774 152.3357 180.0456 152.3255 180.3271"></polygon>
            </g>
            <path d="M132.5648,505.4517 C126.7758,510.9302 122.5468,517.9692 120.2,526.8921 C117.2143,541.141 126.0737,545.9738 136.3895,546.4588 C139.3693,542.5521 142.3491,538.6454 145.3286,534.7387 C141.5395,526.0439 135.9496,512.6945 135.976,505.2204 L132.5648,505.4517 Z" id="Fill-79" fill="#991A00"></path>
            <path d="M132.5648,505.4517 C126.7758,510.9302 122.5468,517.9692 120.2,526.8921 C117.2143,541.141 126.0737,545.9738 136.3895,546.4588 C139.3693,542.5521 142.3491,538.6454 145.3286,534.7387 C141.5395,526.0439 135.9496,512.6945 135.976,505.2204 L132.5648,505.4517 Z" id="Stroke-80" stroke="#231F20" stroke-width="0.216"></path>
            <path d="M133.3604,501.0747 C132.0372,501.2278 143.1088,540.4658 143.1088,540.4658 L155.2442,553.9938 L166.7832,558.5695 L176.1335,508.2367 L174.7772,495.0023 L133.3604,501.0747 Z" id="Fill-81" fill="#1A1A1A"></path>
            <path d="M133.3604,501.0747 C132.0372,501.2278 143.1088,540.4658 143.1088,540.4658 L155.2442,553.9938 L166.7832,558.5695 L176.1335,508.2367 L174.7772,495.0023 L133.3604,501.0747 Z" id="Stroke-82" stroke="#231F20" stroke-width="0.216"></path>
            <path d="M155.857,562.7478 C145.3952,564.1467 138.3763,559.628 136.3895,546.4588 C136.1293,535.2974 140.4232,531.3011 148.9025,536.8255 C154.2047,540.6611 156.9861,547.3483 160.4268,553.3101 C160.8239,544.1726 161.5184,534.4407 161.9155,525.303 C161.9402,519.3766 164.4395,515.1725 170.5567,513.4836 C170.3183,509.9641 170.9374,506.386 170.6987,502.8662 C182.5237,502.0648 193.4912,501.321 205.3162,500.5194 C219.8957,507.619 235.2308,510.9424 251.1354,511.4197 C250.3701,533.4772 248.3138,555.2122 244.3714,576.4746 C239.599,593.7387 233.4305,597.9739 227.0631,600.3479 C216.3359,602.8719 205.2944,602.7234 194.0383,600.7456 C181.6829,598.2599 169.0058,586.9514 155.857,562.7478" id="Fill-83" fill="#F5D6B3"></path>
            <path d="M204.3561,500.7422 C227.4834,499.5494 242.4815,496.5004 265.6089,495.3076 C266.747,513.3141 258.4681,518.3626 250.647,522.3348 C250.8097,518.6963 250.9724,515.058 251.1354,511.4197 C234.015,511.2607 218.7984,506.863 204.3561,500.7422" id="Fill-84" fill="#1A1A1A"></path>
            <path d="M132.5648,505.4517 C127.734,469.2782 130.7211,434.2958 175.4442,428.1106 C199.7359,425.3281 216.0558,428.5301 228.6513,434.795 C260.403,450.5877 265.9354,480.4472 267.6047,496.2963 C222.1203,499.3801 178.0489,502.3681 132.5648,505.4517" id="Fill-85" fill="#FF0000"></path>
            <path d="M134.7531,498.2896 C131.4811,465.7408 137.7249,439.2366 173.7462,431.6432 C167.9017,452.0603 169.2119,473.8595 176.631,494.8064 C162.6384,496.3318 148.7455,496.7646 134.7531,498.2896" id="Fill-86" fill-opacity="0.47" fill="#991A00"></path>
            <path d="M200.2065,491.7272 C204.2014,482.0193 211.3549,476.3438 224.0918,476.4362 C235.3459,477.0505 239.1712,482.6886 242.3673,488.7522 C228.3797,489.9419 214.194,490.5375 200.2065,491.7272" id="Fill-87" fill="#1A1A1A"></path>
            <path d="M214.338,493.5804 C215.1729,493.5804 215.8498,494.2571 215.8498,495.0922 C215.8498,495.9272 215.1729,496.6039 214.338,496.6039 C213.503,496.6039 212.8263,495.9272 212.8263,495.0922 C212.8263,494.2571 213.503,493.5804 214.338,493.5804" id="Fill-88" fill="#991A00"></path>
            <path d="M225.1086,492.9106 C225.9437,492.9106 226.6203,493.5872 226.6203,494.4223 C226.6203,495.2574 225.9437,495.9341 225.1086,495.9341 C224.2738,495.9341 223.5969,495.2574 223.5969,494.4223 C223.5969,493.5872 224.2738,492.9106 225.1086,492.9106" id="Fill-89" fill="#991A00"></path>
            <path d="M234.9615,492.465 C235.7966,492.465 236.4732,493.1416 236.4732,493.9767 C236.4732,494.8118 235.7966,495.4884 234.9615,495.4884 C234.1267,495.4884 233.4498,494.8118 233.4498,493.9767 C233.4498,493.1416 234.1267,492.465 234.9615,492.465" id="Fill-90" fill="#991A00"></path>
            <path d="M194.0964,573.3752 C198.7787,579.3336 207.2222,582.1152 215.4506,582.7116 C227.1623,582.6892 230.0323,578.7119 231.6404,574.17 C220.7911,575.5519 207.3285,575.1709 194.0964,573.3752" id="Fill-91" fill="#663333"></path>
            <path d="M219.4237,536.0298 C220.7174,543.3129 222.0406,550.5928 224.6394,557.7316 C226.2175,563.8717 225.3436,566.3991 221.7081,568.2632 C217.571,569.3395 214.5512,567.6146 211.6763,565.926 C211.9949,565.5436 212.3133,565.1612 212.6316,564.7791 C220.2256,569.6127 226.0996,566.5286 223.2964,558.1523 C221.0309,551.1331 219.2581,543.2474 217.8346,536.129 C218.3641,536.0962 218.8939,536.063 219.4237,536.0298" id="Fill-92" fill-opacity="0.3" fill="#9C754F"></path>
            <polygon id="Fill-93" fill="#1A1A1A" points="173.3377 527.2923 178.1053 520.5385 198.8637 519.2473 199.9562 525.0079 179.5952 524.9087"></polygon>
            <polygon id="Stroke-94" stroke="#231F20" stroke-width="0.216" points="173.3377 527.2923 178.1053 520.5385 198.8637 519.2473 199.9562 525.0079 179.5952 524.9087"></polygon>
            <polygon id="Fill-95" fill="#1A1A1A" points="223.7907 524.71 224.7327 519.719 243.559 520.1411 247.3333 527.1931 242.3673 525.1074"></polygon>
            <polygon id="Stroke-96" stroke="#231F20" stroke-width="0.216" points="223.7907 524.71 224.7327 519.719 243.559 520.1411 247.3333 527.1931 242.3673 525.1074"></polygon>
            <path d="M155.857,562.7478 C145.3952,564.1467 138.3763,559.628 136.3895,546.4588 C136.3422,544.4295 136.4465,542.6391 136.6982,541.0976 C138.2562,533.5461 142.1955,532.4556 148.9025,536.8255 C154.2047,540.6611 156.9861,547.3483 160.4268,553.3101 C170.547,571.5267 184.6809,587.1889 200.6391,601.6913 C198.4473,601.4506 196.2473,601.1337 194.0383,600.7456 C181.6829,598.2599 169.0058,586.9514 155.857,562.7478" id="Fill-97" fill-opacity="0.15" fill="#9C754F"></path>
            <path d="M180.7951,538.5189 C183.9042,543.206 186.8247,544.0904 189.932,544.0831 C195.2651,543.7798 197.9546,541.1101 199.6583,538.3432 C197.5952,535.5842 194.2248,533.4069 188.8778,533.306 C184.8019,533.528 182.478,535.6704 180.7951,538.5189" id="Fill-98" fill="#FFFFFF"></path>
            <path d="M224.5042,537.9769 C227.192,542.0285 229.7163,542.7933 232.4024,542.7868 C237.0124,542.5246 239.3371,540.2169 240.81,537.825 C239.0267,535.4405 236.1129,533.5583 231.4911,533.471 C227.9679,533.6629 225.9592,535.5148 224.5042,537.9769" id="Fill-99" fill="#FFFFFF"></path>
            <path d="M188.3208,543.0532 C190.7875,543.0532 192.7868,541.0537 192.7868,538.587 C192.7868,536.1205 190.7875,534.121 188.3208,534.121 C185.8544,534.121 183.8548,536.1205 183.8548,538.587 C183.8548,541.0537 185.8544,543.0532 188.3208,543.0532" id="Fill-100" fill="#1A1A1A"></path>
            <path d="M231.0097,541.8964 C233.142,541.8964 234.8702,540.1681 234.8702,538.0359 C234.8702,535.904 233.142,534.1754 231.0097,534.1754 C228.8775,534.1754 227.1492,535.904 227.1492,538.0359 C227.1492,540.1681 228.8775,541.8964 231.0097,541.8964" id="Fill-101" fill="#1A1A1A"></path>
            <path d="M180.7951,538.5189 C181.1339,535.5862 184.2355,531.6047 189.9737,531.5553 C194.2169,531.7892 198.6746,534.2412 199.6583,538.3432 C192.1541,531.7728 186.0843,531.4272 180.7951,538.5189" id="Fill-102" fill="#000000"></path>
            <path d="M224.5042,537.9769 C224.797,535.4419 227.4783,532.0004 232.4384,531.9576 C236.1064,532.16 239.9596,534.2792 240.81,537.8253 C234.3234,532.1455 229.0765,531.847 224.5042,537.9769" id="Fill-103" fill="#000000"></path>
            <path d="M194.0964,573.3752 C202.0192,578.4069 227.895,580.2135 231.6404,574.17 C219.3426,574.9209 206.786,574.3902 194.0964,573.3752" id="Fill-104" fill="#FFFFFF"></path>
            <path d="M193.1031,600.5407 C195.8545,601.0815 200.4214,601.6763 200.6391,601.6913 C207.1219,602.4841 215.2877,601.6703 219.5952,601.6774 L220.0476,607.8643 C213.4213,606.871 197.9793,605.8279 193.1031,600.5407" id="Fill-105" fill-opacity="0.2" fill="#9C754F"></path>
            <path d="M207.7299,586.9486 C212.6602,588.0045 217.9817,587.9801 223.6946,586.8754 C218.5455,590.9964 212.976,590.6716 207.7299,586.9486" id="Fill-106" fill="#B88C61"></path>
            <path d="M180.591,534.1524 C184.5272,529.4903 190.2433,528.2762 197.1448,531.4079 C192.1039,526.9556 183.7624,526.7211 180.591,534.1524" id="Fill-107" fill="#B88C61"></path>
            <path d="M141.4689,538.4152 C138.4523,544.7951 141.7822,555.1067 148.6191,558.9613 C141.9761,557.6344 136.0981,545.6965 141.4689,538.4152" id="Fill-108" fill="#B88C61"></path>
            <path d="M224.8435,533.6124 C228.8662,529.8358 234.1278,529.3423 240.0001,532.8769 C235.9375,528.3508 228.4688,527.2682 224.8435,533.6124" id="Fill-109" fill="#B88C61"></path>
            <text id="SUMMER" transform="translate(219.000000, 470.500000) rotate(-4.000000) translate(-219.000000, -470.500000) " font-family="Arial-Black, Arial Black" font-size="10" font-weight="700" line-spacing="23" fill="#FFFFFF">
                <tspan x="194" y="470">SUMMER</tspan>
            </text>
            <text id="-" font-family="Arial-Black, Arial Black" font-size="14.5550826" font-weight="700"></text>
        </g>
    </g>
</svg>