<svg width="76px" height="76px" viewBox="0 0 76 76" version="1.1" xmlns="http://www.w3.org/2000/svg" xmlns:xlink="http://www.w3.org/1999/xlink">
    <!-- Generator: Sketch 50.2 (55047) - http://www.bohemiancoding.com/sketch -->
    <desc>Created with Sketch.</desc>
    <defs></defs>
    <g id="Page-4" stroke="none" stroke-width="1" fill="none" fill-rule="evenodd">
        <g id="SAYT-SUMMER" transform="translate(-72.000000, -199.000000)">
            <path d="M109.9763,272.5705 C129.5456,272.5705 145.4094,256.7064 145.4094,237.1371 C145.4094,217.5679 129.5456,201.7041 109.9763,201.7041 C90.4071,201.7041 74.5432,217.5679 74.5432,237.1371 C74.5432,256.7064 90.4071,272.5705 109.9763,272.5705 Z" id="Fill-179" fill="#FFF100"></path>
            <path d="M109.9763,272.5705 C129.5456,272.5705 145.4094,256.7064 145.4094,237.1371 C145.4094,217.5679 129.5456,201.7041 109.9763,201.7041 C90.4071,201.7041 74.5432,217.5679 74.5432,237.1371 C74.5432,256.7064 90.4071,272.5705 109.9763,272.5705 Z" id="Stroke-180" stroke="#FFF100" stroke-width="3.9685"></path>
            <polygon id="Fill-196" fill="#EC1D24" points="94.4626 240.9628 91.7079 256.4377 99.8753 252.2172 107.2213 258.2816 108.1395 245.2802"></polygon>
            <polygon id="Fill-197" fill="#EC1D24" points="109.8105 245.5719 111.9087 264.0853 119.2524 257.8045 126.9825 261.5729 123.7938 240.6053"></polygon>
            <path d="M109.9763,212.3374 C111.9067,210.4824 113.1616,209.9078 115.35,210.3106 C117.5828,210.907 119.0356,212.2991 119.219,214.6615 C121.8793,213.9611 123.2722,214.0524 124.9526,215.4283 C126.5683,216.9924 127.0848,218.8798 125.9853,221.012 C128.6623,221.6535 129.82,222.3865 130.542,224.3662 C131.1086,226.4792 130.5499,228.3563 128.4616,229.6866 C130.4385,231.4982 131.0505,232.6763 130.6213,234.7297 C129.9861,236.8253 128.5024,238.1885 125.9853,238.3609 C126.7319,240.8576 126.6341,242.1649 125.1683,243.7421 C123.5018,245.2587 121.4906,245.7431 119.219,244.7113 C118.5355,247.2234 117.7546,248.3099 115.645,248.9879 C113.3938,249.5192 111.3939,248.9953 109.9763,247.0354 C108.0459,248.8907 106.791,249.465 104.6027,249.0622 C102.3698,248.4658 100.9171,247.0737 100.7337,244.7113 C98.0734,245.4118 96.6804,245.3205 95,243.9445 C93.3843,242.3804 92.8678,240.4931 93.9674,238.3609 C91.2903,237.7194 90.1327,236.9866 89.4107,235.0066 C88.844,232.8937 89.4027,231.0169 91.4907,229.6866 C89.5141,227.8749 88.9021,226.6969 89.3313,224.6432 C89.9666,222.5475 91.4502,221.1843 93.9674,221.012 C93.2207,218.5152 93.3185,217.2079 94.7843,215.631 C96.4508,214.1144 98.4617,213.63 100.7337,214.6615 C101.4171,212.1495 102.198,211.0629 104.3076,210.3852 C106.5589,209.8537 108.5587,210.3778 109.9763,212.3374" id="Fill-198" fill="#00ADEE"></path>
            <path d="M109.9763,219.7341 C115.473,219.7341 119.9288,224.1899 119.9288,229.6866 C119.9288,235.1832 115.473,239.639 109.9763,239.639 C104.4797,239.639 100.0239,235.1832 100.0239,229.6866 C100.0239,224.1899 104.4797,219.7341 109.9763,219.7341" id="Fill-199" fill="#FEFEFE"></path>
        </g>
    </g>
</svg>