
<svg width="28px" height="28px" viewBox="0 0 28 28" version="1.1" xmlns="http://www.w3.org/2000/svg" xmlns:xlink="http://www.w3.org/1999/xlink">
    <!-- Generator: Sketch 50.2 (55047) - http://www.bohemiancoding.com/sketch -->
    <desc>Created with Sketch.</desc>
    <defs></defs>
    <g id="Page-1" stroke="none" stroke-width="1" fill="#FF0000" fill-rule="evenodd">
        <g id="SAYT-SUMMER" transform="translate(-126.000000, -308.000000)" stroke="#FF0000" stroke-width="0.3685">
            <polygon id="Stroke-129" points="138.5521 325.6433 151.8508 312.3443 153.4045 313.8979 138.5521 328.7503 136.9984 327.1969 132.4689 322.6672 134.0226 321.1135"></polygon>
            <path d="M140.3002,335.488 C147.291,335.488 153.0119,330.0432 153.4544,323.1638 L151.2527,323.1638 C150.8145,328.8289 146.0775,333.2909 140.3002,333.2909 C134.2341,333.2909 129.3143,328.3713 129.3143,322.3052 C129.3143,316.2388 134.2341,311.3192 140.3002,311.3192 L140.3002,309.1221 C133.0206,309.1221 127.1171,315.0255 127.1171,322.3052 C127.1171,329.5846 133.0206,335.488 140.3002,335.488 Z" id="Stroke-131"></path>
        </g>
    </g>
</svg>