<svg width="76px" height="76px" viewBox="0 0 76 76" version="1.1" xmlns="http://www.w3.org/2000/svg" xmlns:xlink="http://www.w3.org/1999/xlink">
    <!-- Generator: Sketch 50.2 (55047) - http://www.bohemiancoding.com/sketch -->
    <desc>Created with Sketch.</desc>
    <defs></defs>
    <g id="Page-4" stroke="none" stroke-width="1" fill="none" fill-rule="evenodd">
        <g id="SAYT-SUMMER" transform="translate(-72.000000, -709.000000)">
            <path d="M109.9763,782.8067 C129.5456,782.8067 145.4094,766.9426 145.4094,747.3734 C145.4094,727.8041 129.5456,711.9403 109.9763,711.9403 C90.4071,711.9403 74.5432,727.8041 74.5432,747.3734 C74.5432,766.9426 90.4071,782.8067 109.9763,782.8067 Z" id="Fill-187" fill="#FFF100"></path>
            <path d="M109.9763,782.8067 C129.5456,782.8067 145.4094,766.9426 145.4094,747.3734 C145.4094,727.8041 129.5456,711.9403 109.9763,711.9403 C90.4071,711.9403 74.5432,727.8041 74.5432,747.3734 C74.5432,766.9426 90.4071,782.8067 109.9763,782.8067 Z" id="Stroke-188" stroke="#FFF100" stroke-width="3.9685"></path>
            <polygon id="Fill-220" fill="#EC1D24" points="87.9752 740.5053 131.9771 740.5053 131.9771 771.3068 87.9752 771.3068"></polygon>
            <polygon id="Fill-221" fill="#55C5CF" points="106.2159 771.3068 113.7365 771.3068 113.7365 740.5053 106.2159 740.5053"></polygon>
            <polygon id="Fill-222" fill="#00ADEE" points="104.8088 737.0564 104.6636 727.1484 108.3725 723.4399 112.5017 725.9831 114.9423 737.2987"></polygon>
            <polygon id="Fill-223" fill="#55C5CF" points="103.0949 740.5053 90.8821 736.6142 91.0242 730.0744 98.2945 727.1785 110.6167 736.3239 117.1219 727.56 127.0284 728.6364 126.6321 736.5941 117.5102 740.5053"></polygon>
        </g>
    </g>
</svg>
