
<svg width="308px" height="86px" viewBox="0 0 308 86" version="1.1" xmlns="http://www.w3.org/2000/svg" xmlns:xlink="http://www.w3.org/1999/xlink">
    <!-- Generator: Sketch 50.2 (55047) - http://www.bohemiancoding.com/sketch -->
    <desc>Created with Sketch.</desc>
    <defs></defs>
    <g id="Page-1" stroke="none" stroke-width="1" fill="none" fill-rule="evenodd">
        <g id="Group">
            <path d="M7.941,0 L77.0987,0 C81.4663,0 85.0397,3.8267 85.0397,8.5039 L85.0397,14.1732 L85.0391,14.1732 C69.3873,14.1732 56.6932,26.8676 56.6932,42.5205 C56.6932,58.1723 69.3873,70.8664 85.0391,70.8664 L85.0397,70.8664 L85.0397,76.5357 C85.0397,81.2128 81.4663,85.0396 77.0987,85.0396 L7.941,85.0396 C3.5734,85.0396 0,81.2128 0,76.5357 L0,8.5039 C0,3.8267 3.5734,0 7.941,0 Z M85.0391,66.6144 L85.0397,66.6144 L85.0397,18.4251 L85.0391,18.4251 C71.7355,18.4251 60.9452,29.2158 60.9452,42.5205 C60.9452,55.824 71.7355,66.6144 85.0391,66.6144 Z" id="Fill-113" fill="#FFD60F"></path>
            <path d="M75.0986,78.1174 C75.634,76.6468 74.8755,75.0194 73.4046,74.484 C71.9337,73.9485 70.3066,74.7076 69.7711,76.1785 C69.2362,77.6488 69.9948,79.2759 71.4654,79.8117 C72.9366,80.3469 74.5634,79.588 75.0986,78.1174" id="Fill-114" fill="#FEFEFE"></path>
            <path d="M63.523,72.5709 C64.5296,71.3718 64.3731,69.5831 63.1741,68.5771 C61.9747,67.5711 60.1863,67.7279 59.1803,68.9269 C58.1746,70.1254 58.3308,71.9141 59.5301,72.9201 C60.7289,73.9264 62.5176,73.7696 63.523,72.5709" id="Fill-115" fill="#FEFEFE"></path>
            <path d="M54.5428,63.3999 C55.8987,62.617 56.3633,60.883 55.5809,59.5275 C54.798,58.1717 53.064,57.7074 51.7082,58.49 C50.3532,59.2727 49.8881,61.0066 50.671,62.3622 C51.4536,63.7177 53.1879,64.182 54.5428,63.3999" id="Fill-116" fill="#FEFEFE"></path>
            <path d="M49.2409,51.7104 C50.7824,51.4386 51.8122,49.968 51.5407,48.4265 C51.2685,46.885 49.7979,45.8554 48.2562,46.1273 C46.7153,46.3989 45.6857,47.8695 45.9573,49.4109 C46.2291,50.9527 47.7,51.982 49.2409,51.7104" id="Fill-117" fill="#FEFEFE"></path>
            <path d="M48.2567,38.9123 C49.7982,39.1844 51.2691,38.1546 51.5407,36.6134 C51.8125,35.0716 50.7824,33.6013 49.2409,33.3294 C47.7003,33.0576 46.2294,34.0871 45.9576,35.6286 C45.6857,37.1704 46.7155,38.6407 48.2567,38.9123" id="Fill-118" fill="#FEFEFE"></path>
            <path d="M51.7088,26.5495 C53.0643,27.3325 54.7985,26.8681 55.5815,25.5123 C56.3638,24.1568 55.8992,22.4226 54.5434,21.6399 C53.1884,20.8576 51.4542,21.3222 50.6716,22.6777 C49.8889,24.0335 50.3538,25.7674 51.7088,26.5495" id="Fill-119" fill="#FEFEFE"></path>
            <path d="M59.1812,16.1132 C60.1872,17.3123 61.9758,17.469 63.1749,16.463 C64.3742,15.4567 64.5301,13.6683 63.5241,12.4693 C62.5184,11.2705 60.7297,11.1137 59.5307,12.12 C58.3313,13.1261 58.1754,14.9147 59.1812,16.1132" id="Fill-120" fill="#FEFEFE"></path>
            <path d="M69.7725,8.8619 C70.3077,10.3328 71.9348,11.0919 73.4054,10.5565 C74.8766,10.021 75.6352,8.3936 75.0997,6.923 C74.5648,5.4524 72.9374,4.6936 71.4668,5.2287 C69.9956,5.7645 69.2371,7.3916 69.7725,8.8619" id="Fill-121" fill="#FEFEFE"></path>
        </g>
        <g id="Group-2" transform="translate(96.000000, 6.000000)" fill="#000000">
            <g id="SUMMER">
                <text font-family="Arial-Black, Arial Black" font-size="39" font-weight="700" letter-spacing="3.76551747">
                    <tspan x="0.317461252" y="43">SUMMER</tspan>
                </text>
                <text id="paint-roller" font-family="ArialMT, Arial" font-size="20" font-weight="normal" letter-spacing="1.93103468">
                    <tspan x="49.7243388" y="63">paint roller</tspan>
                </text>
            </g>
        </g>
    </g>
</svg>