<svg width="76px" height="76px" viewBox="0 0 76 76" version="1.1" xmlns="http://www.w3.org/2000/svg" xmlns:xlink="http://www.w3.org/1999/xlink">
    <!-- Generator: Sketch 50.2 (55047) - http://www.bohemiancoding.com/sketch -->
    <desc>Created with Sketch.</desc>
    <defs></defs>
    <g id="Page-4" stroke="none" stroke-width="1" fill="none" fill-rule="evenodd">
        <g id="SAYT-SUMMER" transform="translate(-72.000000, -327.000000)">
            <path d="M109.9763,400.1295 C129.5456,400.1295 145.4094,384.2655 145.4094,364.6962 C145.4094,345.1269 129.5456,329.2631 109.9763,329.2631 C90.4071,329.2631 74.5432,345.1269 74.5432,364.6962 C74.5432,384.2655 90.4071,400.1295 109.9763,400.1295 Z" id="Fill-181" fill="#FFF100"></path>
            <path d="M109.9763,400.1295 C129.5456,400.1295 145.4094,384.2655 145.4094,364.6962 C145.4094,345.1269 129.5456,329.2631 109.9763,329.2631 C90.4071,329.2631 74.5432,345.1269 74.5432,364.6962 C74.5432,384.2655 90.4071,400.1295 109.9763,400.1295 Z" id="Stroke-182" stroke="#FFF100" stroke-width="3.9685"></path>
            <path d="M114.3567,347.8439 C115.0058,347.8439 115.5325,347.3175 115.5325,346.6681 C115.5325,346.0187 115.0058,345.492 114.3567,345.492 C113.7073,345.492 113.1806,346.0187 113.1806,346.6681 C113.1806,347.3175 113.7073,347.8439 114.3567,347.8439" id="Fill-189" fill="#FEFEFE"></path>
            <path d="M108.1094,344.062 C108.7586,344.062 109.2852,343.5356 109.2852,342.8861 C109.2852,342.2367 108.7586,341.7101 108.1094,341.7101 C107.46,341.7101 106.9333,342.2367 106.9333,342.8861 C106.9333,343.5356 107.46,344.062 108.1094,344.062" id="Fill-190" fill="#FEFEFE"></path>
            <path d="M112.701,344.276 C114.2524,344.276 115.5101,343.0182 115.5101,341.4668 C115.5101,339.9154 114.2524,338.6577 112.701,338.6577 C111.1496,338.6577 109.8918,339.9154 109.8918,341.4668 C109.8918,343.0182 111.1496,344.276 112.701,344.276" id="Fill-191" fill="#FEFEFE"></path>
            <path d="M106.835,340.4625 C108.0978,340.4625 109.1214,339.4389 109.1214,338.1761 C109.1214,336.9133 108.0978,335.8894 106.835,335.8894 C105.5721,335.8894 104.5483,336.9133 104.5483,338.1761 C104.5483,339.4389 105.5721,340.4625 106.835,340.4625" id="Fill-192" fill="#FEFEFE"></path>
            <path d="M104.1948,345.9578 C105.205,345.9578 106.024,345.1388 106.024,344.1286 C106.024,343.1183 105.205,342.2994 104.1948,342.2994 C103.1845,342.2994 102.3656,343.1183 102.3656,344.1286 C102.3656,345.1388 103.1845,345.9578 104.1948,345.9578" id="Fill-193" fill="#FEFEFE"></path>
            <path d="M108.5763,349.111 C109.7867,349.111 110.7677,348.13 110.7677,346.9196 C110.7677,345.7092 109.7867,344.7278 108.5763,344.7278 C107.3659,344.7278 106.3848,345.7092 106.3848,346.9196 C106.3848,348.13 107.3659,349.111 108.5763,349.111" id="Fill-194" fill="#FEFEFE"></path>
            <path d="M101.1124,349.8565 L117.8124,349.8565 L117.8124,355.0604 L114.3635,355.0604 C114.3635,356.442 114.3266,357.8973 114.3266,359.2789 C125.0875,374.3496 130.2956,384.8134 127.8057,387.9003 C122.8283,394.6451 95.5548,393.3752 92.1813,387.5959 C89.7639,383.0426 94.1193,372.6051 105.0437,359.2789 L105.0795,355.0604 L101.1419,355.0604 L101.1124,349.8565 Z" id="Fill-195" fill="#FEFEFE"></path>
            <path d="M98.7525,374.1801 L120.7627,374.1801 C122.9763,377.7988 124.1887,381.86 124.7102,384.8477 C124.7545,390.4532 94.4861,389.274 95.0315,383.982 C95.921,379.6903 97.1872,376.7979 98.7525,374.1801" id="Fill-200" fill="#00ADEE"></path>
        </g>
    </g>
</svg>