<svg width="76px" height="76px" viewBox="0 0 76 76" version="1.1" xmlns="http://www.w3.org/2000/svg" xmlns:xlink="http://www.w3.org/1999/xlink">
    <!-- Generator: Sketch 50.2 (55047) - http://www.bohemiancoding.com/sketch -->
    <desc>Created with Sketch.</desc>
    <defs></defs>
    <g id="Page-4" stroke="none" stroke-width="1" fill="none" fill-rule="evenodd">
        <g id="SAYT-SUMMER" transform="translate(-72.000000, -454.000000)">
            <path d="M109.9763,527.6886 C129.5456,527.6886 145.4094,511.8245 145.4094,492.2552 C145.4094,472.686 129.5456,456.8222 109.9763,456.8222 C90.4071,456.8222 74.5432,472.686 74.5432,492.2552 C74.5432,511.8245 90.4071,527.6886 109.9763,527.6886 Z" id="Fill-183" fill="#FFF100"></path>
            <path d="M109.9763,527.6886 C129.5456,527.6886 145.4094,511.8245 145.4094,492.2552 C145.4094,472.686 129.5456,456.8222 109.9763,456.8222 C90.4071,456.8222 74.5432,472.686 74.5432,492.2552 C74.5432,511.8245 90.4071,527.6886 109.9763,527.6886 Z" id="Stroke-184" stroke="#FFF100" stroke-width="3.9685"></path>
            <path d="M92.717,474.9959 L107.4081,474.9959 C106.3057,475.8248 105.5928,477.1435 105.5928,478.6285 C105.5928,481.1366 107.6267,483.1705 110.1348,483.1705 C112.6429,483.1705 114.6767,481.1366 114.6767,478.6285 C114.6767,477.1435 113.963,475.8248 112.8606,474.9959 L127.2356,474.9959 L127.2356,489.4495 C128.0645,488.3471 129.3837,487.6342 130.8691,487.6342 C133.3772,487.6342 135.411,489.6681 135.411,492.1762 C135.411,494.684 133.3772,496.7178 130.8691,496.7178 C129.3837,496.7178 128.0645,496.0041 127.2356,494.9017 L127.2356,509.5146 L112.8574,509.5146 C113.9618,508.686 114.6767,507.3665 114.6767,505.88 C114.6767,503.3722 112.6429,501.3383 110.1348,501.3383 C107.6267,501.3383 105.5928,503.3722 105.5928,505.88 C105.5928,507.3665 106.3069,508.686 107.411,509.5146 L92.717,509.5146 L92.717,494.9005 C91.8884,496.0038 90.5692,496.7178 89.0836,496.7178 C86.5755,496.7178 84.5416,494.684 84.5416,492.1762 C84.5416,489.6681 86.5755,487.6342 89.0836,487.6342 C90.5692,487.6342 91.8884,488.3474 92.717,489.4507 L92.717,474.9959 Z" id="Fill-201" fill="#2E3092"></path>
        </g>
    </g>
</svg>