<svg width="39px" height="39px" viewBox="0 0 39 39" version="1.1" xmlns="http://www.w3.org/2000/svg" xmlns:xlink="http://www.w3.org/1999/xlink">
    <!-- Generator: Sketch 50.2 (55047) - http://www.bohemiancoding.com/sketch -->
    <desc>Created with Sketch.</desc>
    <defs></defs>
    <g id="Page-3" stroke="none" stroke-width="1" fill="none" fill-rule="evenodd">
        <g id="SAYT-SUMMER" transform="translate(-119.000000, -202.000000)">
            <path d="M138.4252,239.8504 C148.601,239.8504 156.8504,231.601 156.8504,221.4252 C156.8504,211.2494 148.601,203 138.4252,203 C128.2493,203 120,211.2494 120,221.4252 C120,231.601 128.2493,239.8504 138.4252,239.8504 Z" id="Fill-158" fill="#FFFFFF"></path>
            <path d="M138.4252,239.8504 C148.601,239.8504 156.8504,231.601 156.8504,221.4252 C156.8504,211.2494 148.601,203 138.4252,203 C128.2493,203 120,211.2494 120,221.4252 C120,231.601 128.2493,239.8504 138.4252,239.8504 Z" id="Stroke-159" stroke="#FF0000" stroke-width="1.9843"></path>
            <path d="M137.9757,227.5664 L137,213.7685 L137,208 L140.9571,208 L140.9571,213.7685 L140.0362,227.5664 L137.9757,227.5664 Z M137.1397,234.0263 L137.1397,230.3844 L140.8177,230.3844 L140.8177,234.0263 L137.1397,234.0263 Z" id="Fill-160" fill="#FF0000"></path>
            <path d="M137.9757,227.5664 L137,213.7685 L137,208 L140.9571,208 L140.9571,213.7685 L140.0362,227.5664 L137.9757,227.5664 Z M137.1397,234.0263 L137.1397,230.3844 L140.8177,230.3844 L140.8177,234.0263 L137.1397,234.0263 Z" id="Stroke-161" stroke="#FF0000" stroke-width="0.216"></path>
        </g>
    </g>
</svg>